<?xml version="1.0" encoding="utf-8"?>
<!-- Generator: Adobe Illustrator 27.0.0, SVG Export Plug-In . SVG Version: 6.00 Build 0)  -->
<svg version="1.1" id="Layer_1" xmlns="http://www.w3.org/2000/svg" xmlns:xlink="http://www.w3.org/1999/xlink" x="0px" y="0px"
	 viewBox="0 0 700 700" style="enable-background:new 0 0 700 700;" xml:space="preserve">
<style type="text/css">
	.st0{fill:#F13591;}
</style>
<g>
	<path class="st0" d="M165.2,118.7c0,7.7-6.3,14-14,14c-7.7,0-14-6.3-14-14c0-7.7,6.3-14,14-14C158.9,104.7,165.2,111,165.2,118.7"
		/>
	<path class="st0" d="M206.1,118.7c0,7.7-6.3,14-14,14c-7.7,0-14-6.3-14-14c0-7.7,6.3-14,14-14C199.8,104.7,206.1,111,206.1,118.7"
		/>
	<path class="st0" d="M246.4,118.7c0,7.7-6.3,14-14,14c-7.7,0-14-6.3-14-14c0-7.7,6.3-14,14-14C240.1,104.7,246.4,111,246.4,118.7"
		/>
	<path class="st0" d="M579,53.2H121c-20.2,0-37,16.2-37,37v380.2c0,20.2,16.2,37,37,37h458.6c20.2,0,37-16.2,37-37l0-380.2
		C616,70,599.8,53.2,579,53.2L579,53.2z M121,81.8h458.6c4.5,0,8.4,3.9,8.4,8.4v65.5H112.6V90.2C112.6,85.7,116.5,81.8,121,81.8
		L121,81.8z M579,478.2H121c-4.5,0-8.4-3.9-8.4-8.4l0-286.2h474.9v286.2C587.4,474.3,583.5,478.2,579,478.2L579,478.2z"/>
	<path class="st0" d="M253.7,306.9c2.8,2.8,6.2,3.9,10.1,3.9c3.9,0,7.3-1.1,10.1-3.9l15.7-15.7l15.7,15.7c2.8,2.8,6.2,3.9,10.1,3.9
		c3.9,0,7.3-1.1,10.1-3.9c5.6-5.6,5.6-14.6,0-20.2L309.7,271l15.7-15.7c5.6-5.6,5.6-14.6,0-20.2c-5.6-5.6-14.6-5.6-20.2,0
		l-15.7,15.7l-15.7-15.7c-5.6-5.6-14.6-5.6-20.2,0c-5.6,5.6-5.6,14.6,0,20.2l15.7,15.7l-15.7,15.7
		C248.1,292.3,248.1,301.3,253.7,306.9L253.7,306.9z"/>
	<path class="st0" d="M446.3,235.8c-5.6-5.6-14.6-5.6-20.2,0l-15.7,15.7l-15.7-15.7c-5.6-5.6-14.6-5.6-20.2,0
		c-5.6,5.6-5.6,14.6,0,20.2l15.7,15.7l-15.7,15.7c-5.6,5.6-5.6,14.6,0,20.2c2.8,2.8,6.2,3.9,10.1,3.9c3.9,0,7.3-1.1,10.1-3.9
		l15.7-15.7l15.7,15.7c2.8,2.8,6.2,3.9,10.1,3.9c3.9,0,7.3-1.1,10.1-3.9c5.6-5.6,5.6-14.6,0-20.2l-15.7-15.7l15.7-15.7
		C451.9,250.3,451.9,241.4,446.3,235.8L446.3,235.8z"/>
	<path class="st0" d="M433.4,349.4H266.6c-7.8,0-14,6.2-14,14s6.2,14,14,14h79V406c0,20.7,16.8,37,37,37s37-16.8,37-37v-28.6h13.4
		c7.8,0,14-6.2,14-14C447.4,355.6,441.3,349.4,433.4,349.4L433.4,349.4z M391.4,406.6c0,5-3.9,9-9,9c-5,0-9-3.9-9-9V378h17.4v28.6
		H391.4z"/>
</g>
</svg>
